<?xml version="1.0" encoding="UTF-8"?>
<svg width="568px" height="83px" viewBox="0 0 568 83" version="1.1" xmlns="http://www.w3.org/2000/svg" xmlns:xlink="http://www.w3.org/1999/xlink">
    <!-- Generator: Sketch 63 (92445) - https://sketch.com -->
    <title>平安小秘书</title>
    <desc>Created with Sketch.</desc>
    <g id="页面-2" stroke="none" stroke-width="1" fill="none" fill-rule="evenodd" opacity="0.0799999982">
        <g id="1.0-提醒" transform="translate(-150.000000, -581.000000)" fill="#FFFFFF" fill-rule="nonzero">
            <g id="编组-3" transform="translate(32.000000, 290.000000)">
                <g id="卡片bg">
                    <path d="M176.432,373.984 L179.952,348.464 L220.08,348.464 C220.96,348.464 221.752,348.170667 222.456,347.584 C223.101333,346.997333 223.482667,346.264 223.6,345.384 L224.48,339.048 L181.272,339.048 L186.64,299.624 L224.832,299.624 C225.712,299.624 226.504,299.330667 227.208,298.744 C227.853333,298.157333 228.234667,297.424 228.352,296.544 L229.144,291 L131.464,291 C130.408,291 129.498667,291.352 128.736,292.056 C127.973333,292.76 127.504,293.64 127.328,294.696 L126.624,299.624 L168.336,299.624 L162.968,339.048 L122.488,339.048 C121.608,339.048 120.845333,339.341333 120.2,339.928 C119.496,340.514667 119.056,341.277333 118.88,342.216 L118,348.464 L161.648,348.464 L158.128,373.984 L176.432,373.984 Z M146.424,334.56 L147.216,310.448 C147.157333,308.394667 146.482667,306.722667 145.192,305.432 C143.842667,304.082667 142.170667,303.408 140.176,303.408 L129.528,303.408 L128.912,330.688 C128.912,331.802667 129.264,332.741333 129.968,333.504 C130.672,334.208 131.552,334.56 132.608,334.56 L146.424,334.56 Z M204.24,334.56 C207.642667,334.56 210.752,333.416 213.568,331.128 C216.384,328.84 218.261333,325.936 219.2,322.416 L224.04,303.408 L209.52,303.408 C208.64,303.408 207.818667,303.701333 207.056,304.288 C206.352,304.874667 205.882667,305.608 205.648,306.488 L198.608,334.56 L204.24,334.56 Z M342.752,308.336 L343.456,303.32 C343.749333,300.973333 343.192,298.949333 341.784,297.248 C340.258667,295.546667 338.381333,294.696 336.152,294.696 L336.152,294.696 L302.448,294.696 C302.565333,293.698667 302.330667,292.848 301.744,292.144 C301.157333,291.44 300.394667,291.088 299.456,291.088 L299.456,291.088 L285.024,291.088 L284.584,294.696 L263.112,294.696 L262.144,301.824 L323.744,301.824 C324.272,301.824 324.712,302.058667 325.064,302.528 C325.416,302.938667 325.533333,303.408 325.416,303.936 L325.416,303.936 L324.8,308.336 L342.752,308.336 Z M258.624,308.336 L258.888,306.312 L258.888,306.136 L259.152,303.936 L260.384,294.696 L250.792,294.696 C248.504,294.696 246.450667,295.546667 244.632,297.248 C242.696,298.949333 241.581333,300.973333 241.288,303.32 L241.288,303.32 L240.584,308.336 L258.624,308.336 Z M232.4,373.984 L284.232,363.424 L319.52,373.72 C324.154667,374.658667 328.144,373.074667 331.488,368.968 L331.488,368.968 L333.864,365.888 L307.376,358.672 L323.656,355.24 C325.298667,354.888 326.677333,354.037333 327.792,352.688 C328.906667,351.338667 329.581333,349.754667 329.816,347.936 L329.816,347.936 L333.16,323.648 L336.944,323.648 C338,323.648 338.938667,323.296 339.76,322.592 C340.581333,321.888 341.08,320.949333 341.256,319.776 L341.256,319.776 L341.784,315.464 L334.216,315.464 L334.92,310.448 L320.224,310.448 C319.285333,310.448 318.464,310.756 317.76,311.372 C317.056,311.988 316.616,312.794667 316.44,313.792 L316.44,313.792 L316.264,315.464 L264.432,315.464 L265.136,310.448 L250.704,310.448 C249.706667,310.448 248.841333,310.785333 248.108,311.46 C247.374667,312.134667 246.92,313 246.744,314.056 L246.744,314.056 L246.568,315.464 L243.048,315.464 C242.050667,315.464 241.2,315.801333 240.496,316.476 C239.792,317.150667 239.352,317.986667 239.176,318.984 L239.176,318.984 L238.56,323.648 L245.512,323.648 L242.08,347.936 C241.904,349.754667 242.256,351.338667 243.136,352.688 C244.016,354.037333 245.218667,354.888 246.744,355.24 L246.744,355.24 L262.76,358.76 L241.816,362.72 C237.650667,363.717333 234.864,366.298667 233.456,370.464 L233.456,370.464 L232.4,373.984 Z M311.271347,347.111673 C310.962449,347.384653 310.632,347.571429 310.28,347.672 L310.28,347.672 L285.552,352.776 L262.232,347.672 C261.821333,347.554667 261.469333,347.32 261.176,346.968 C261.058667,346.909333 260.970667,346.821333 260.912,346.704 C260.618667,346.176 260.472,345.618667 260.472,345.032 L260.472,345.032 L263.376,323.648 L315.208,323.648 L312.304,345.032 C312.245333,345.618667 312.04,346.176 311.688,346.704 C311.570667,346.821333 311.482667,346.909333 311.424,346.968 L311.424,346.968 L311.271347,347.111673 Z M399.336,373.632 C400.685333,373.632 402.005333,373.426667 403.296,373.016 C404.645333,372.546667 405.848,371.872 406.904,370.992 C407.96,370.112 408.869333,369.056 409.632,367.824 C410.394667,366.592 410.893333,365.184 411.128,363.6 L421.248,291.176 L406.992,291.176 C405.877333,291.176 404.865333,291.572 403.956,292.364 C403.046667,293.156 402.504,294.138667 402.328,295.312 L393.088,361.048 C392.912,362.045333 392.472,362.808 391.768,363.336 C391.005333,363.805333 390.125333,364.04 389.128,364.04 L383.232,364.04 C381.941333,364.04 380.797333,364.48 379.8,365.36 C378.802667,366.24 378.186667,367.354667 377.952,368.704 L377.248,373.632 L399.336,373.632 Z M348.56,371.96 C353.488,371.96 357.990667,370.317333 362.068,367.032 C366.145333,363.746667 368.829333,359.581333 370.12,354.536 L383.584,296.632 L368.888,296.632 C368.066667,296.632 367.333333,296.896 366.688,297.424 C366.042667,297.952 365.632,298.626667 365.456,299.448 L348.56,371.96 Z M453.28,371.96 L456.888,296.632 L444.04,296.632 C442.808,296.632 441.722667,297.086667 440.784,297.996 C439.845333,298.905333 439.317333,300.005333 439.2,301.296 L436.384,359.728 C436.325333,363.306667 437.381333,366.24 439.552,368.528 C441.722667,370.816 444.568,371.96 448.088,371.96 L453.28,371.96 Z M509.688,373.632 C511.624,373.632 513.325333,372.957333 514.792,371.608 C516.258667,370.258667 517.168,368.528 517.52,366.416 L528.52,291 L522.624,291 C521.216,291 519.969333,291.498667 518.884,292.496 C517.798667,293.493333 517.138667,294.754667 516.904,296.28 L505.728,373.632 L509.688,373.632 Z M548.672,373.456 L548.76,372.928 C548.936,371.168 548.496,369.642667 547.44,368.352 C546.384,367.061333 545.034667,366.416 543.392,366.416 L539.696,366.416 C538.933333,366.416 538.317333,366.093333 537.848,365.448 C537.378667,364.802667 537.202667,364.04 537.32,363.16 L539.08,349.784 L546.912,347.76 C550.608,346.586667 552.808,343.976 553.512,339.928 L554.128,335.704 L540.488,339.224 L546.912,291 L531.424,291 L524.472,343.36 L523.768,343.536 C522.829333,343.829333 522.272,344.474667 522.096,345.472 L520.864,354.448 L523.064,353.92 L521.656,364.832 C521.362667,367.178667 521.890667,369.202667 523.24,370.904 C524.530667,372.605333 526.32,373.456 528.608,373.456 L548.672,373.456 Z M555.624,326.816 L558.968,297.864 C559.085333,295.986667 558.586667,294.373333 557.472,293.024 C556.357333,291.674667 554.92,291 553.16,291 L549.2,291 L545.592,321.8 C545.474667,323.208 545.826667,324.396 546.648,325.364 C547.469333,326.332 548.525333,326.816 549.816,326.816 L555.624,326.816 Z M563.104,373.632 L572.168,298.744 C572.344,296.632 571.801333,294.813333 570.54,293.288 C569.278667,291.762667 567.68,291 565.744,291 L562.4,291 L553.248,366.24 C553.072,368.234667 553.570667,369.965333 554.744,371.432 C555.917333,372.898667 557.442667,373.632 559.32,373.632 L563.104,373.632 Z M489.712,373.984 L497.808,313.44 L508.28,313.44 C509.218667,313.44 510.025333,313.117333 510.7,312.472 C511.374667,311.826667 511.8,311.005333 511.976,310.008 L512.416,306.4 L498.688,306.4 L499.832,298.128 L508.016,298.128 C509.424,298.128 510.656,297.644 511.712,296.676 C512.768,295.708 513.384,294.490667 513.56,293.024 L513.824,291.088 L475.808,291.088 C474.869333,291.088 474.048,291.410667 473.344,292.056 C472.64,292.701333 472.2,293.522667 472.024,294.52 L471.584,298.128 L484.784,298.128 L483.64,306.4 L472.728,306.4 C471.906667,306.4 471.188,306.678667 470.572,307.236 C469.956,307.793333 469.589333,308.512 469.472,309.392 L468.944,313.44 L482.76,313.44 L474.664,373.984 L489.712,373.984 Z M461.376,373.984 C464.192,373.984 466.656,373.030667 468.768,371.124 C470.88,369.217333 472.170667,366.768 472.64,363.776 L479.768,317.664 L473.168,317.664 C472.288,317.664 471.496,317.972 470.792,318.588 C470.088,319.204 469.648,320.010667 469.472,321.008 L461.376,373.984 Z M503.088,373.984 L509.16,319.776 C509.218667,319.189333 509.072,318.690667 508.72,318.28 C508.368,317.869333 507.928,317.664 507.4,317.664 L499.48,317.664 L494.376,363.6 C494.141333,366.474667 494.874667,368.924 496.576,370.948 C498.277333,372.972 500.448,373.984 503.088,373.984 Z M621.096,373.896 C621.741333,373.896 622.328,373.676 622.856,373.236 C623.384,372.796 623.677333,372.253333 623.736,371.608 L628.312,339.312 L662.72,339.312 L659.64,361.136 C659.522667,361.898667 659.2,362.544 658.672,363.072 C658.085333,363.541333 657.381333,363.776 656.56,363.776 L644.592,363.776 C643.653333,363.776 642.802667,364.098667 642.04,364.744 C641.277333,365.389333 640.837333,366.210667 640.72,367.208 L640.192,370.816 L668.352,370.816 C670.698667,370.816 672.84,369.965333 674.776,368.264 C676.712,366.562667 677.856,364.538667 678.208,362.192 L682.256,333.24 C682.373333,332.184 682.124,331.289333 681.508,330.556 C680.892,329.822667 680.056,329.456 679,329.456 L667.736,329.456 L671.168,305.256 C671.461333,303.144 670.992,301.354667 669.76,299.888 C668.469333,298.421333 666.797333,297.688 664.744,297.688 L634.12,297.688 L635.088,291 L619.248,291 C618.544,291 617.928,291.234667 617.4,291.704 C616.872,292.173333 616.549333,292.76 616.432,293.464 L615.816,297.688 L588.008,297.688 C587.421333,297.688 586.908,297.878667 586.468,298.26 C586.028,298.641333 585.749333,299.125333 585.632,299.712 L584.752,306.048 L614.672,306.048 L611.328,329.456 L579.736,329.456 C579.149333,329.456 578.621333,329.661333 578.152,330.072 C577.682667,330.482667 577.389333,331.010667 577.272,331.656 L576.216,339.312 L610.008,339.312 L605.08,373.896 L621.096,373.896 Z M686.128,313.792 L684.72,296.368 C684.602667,295.077333 684.104,294.036 683.224,293.244 C682.344,292.452 681.258667,292.056 679.968,292.056 L673.544,292.056 L675.128,311.24 C675.186667,312.002667 675.48,312.618667 676.008,313.088 C676.536,313.557333 677.181333,313.792 677.944,313.792 L686.128,313.792 Z M650.224,329.456 L629.72,329.456 L632.976,306.048 L651.368,306.048 C651.896,306.048 652.365333,306.282667 652.776,306.752 C653.128,307.162667 653.274667,307.661333 653.216,308.248 L650.224,329.456 Z" id="平安小秘书"></path>
                </g>
            </g>
        </g>
    </g>
</svg>