<?xml version="1.0" encoding="UTF-8"?>
<svg width="48px" height="58px" viewBox="0 0 48 58" version="1.1" xmlns="http://www.w3.org/2000/svg" xmlns:xlink="http://www.w3.org/1999/xlink">
    <!-- Generator: Sketch 63 (92445) - https://sketch.com -->
    <title>关闭</title>
    <desc>Created with Sketch.</desc>
    <g id="页面-2" stroke="none" stroke-width="1" fill="none" fill-rule="evenodd">
        <g id="1.3-提醒-新建文本" transform="translate(-615.000000, -217.000000)">
            <g id="编组-5" transform="translate(55.000000, 217.000000)">
                <g id="关闭" transform="translate(560.000000, 0.000000)">
                    <path d="M0,0 L48,0 L48,34 C48,47.254834 37.254834,58 24,58 C10.745166,58 1.623249e-15,47.254834 0,34 L0,0 L0,0 Z" id="矩形" fill="#FF5656"></path>
                    <g id="编组-3" transform="translate(12.000000, 16.000000)">
                        <rect id="矩形" x="0" y="0" width="24" height="24"></rect>
                        <path d="M18.6817795,2.49580964 C19.467365,1.80598753 20.6644069,1.8359798 21.4142136,2.58578644 C22.1952621,3.36683502 22.1952621,4.63316498 21.4142136,5.41421356 L21.4142136,5.41421356 L14.829,12 L21.4142136,18.5857864 C22.1952621,19.366835 22.1952621,20.633165 21.4142136,21.4142136 C20.6644069,22.1640202 19.467365,22.1940125 18.6817795,21.5041904 L18.5857864,21.4142136 L12,14.829 L5.41421356,21.4142136 L5.3182205,21.5041904 C4.53263503,22.1940125 3.33559308,22.1640202 2.58578644,21.4142136 C1.80473785,20.633165 1.80473785,19.366835 2.58578644,18.5857864 L2.58578644,18.5857864 L9.171,12 L2.58578644,5.41421356 C1.80473785,4.63316498 1.80473785,3.36683502 2.58578644,2.58578644 C3.33559308,1.8359798 4.53263503,1.80598753 5.3182205,2.49580964 L5.41421356,2.58578644 L12,9.171 L18.5857864,2.58578644 Z" id="形状结合" fill="#FFFFFF" fill-rule="nonzero"></path>
                    </g>
                </g>
            </g>
        </g>
    </g>
</svg>