<?xml version="1.0" encoding="UTF-8"?>
<svg width="26px" height="27px" viewBox="0 0 26 27" version="1.1" xmlns="http://www.w3.org/2000/svg" xmlns:xlink="http://www.w3.org/1999/xlink">
    <!-- Generator: Sketch 63 (92445) - https://sketch.com -->
    <title>复制文本</title>
    <desc>Created with Sketch.</desc>
    <defs>
        <rect id="path-1" x="0" y="0" width="28" height="28"></rect>
    </defs>
    <g id="页面-2" stroke="none" stroke-width="1" fill="none" fill-rule="evenodd">
        <g id="1.7-提醒-查看文本" transform="translate(-152.000000, -1034.000000)">
            <g id="编组-5" transform="translate(55.000000, 217.000000)">
                <g id="btn" transform="translate(32.000000, 792.000000)">
                    <g id="复制文本" transform="translate(64.000000, 24.000000)">
                        <mask id="mask-2" fill="white">
                            <use xlink:href="#path-1"></use>
                        </mask>
                        <g id="蒙版"></g>
                        <path d="M23.8,1.05 C25.1249081,1.05 26.2041845,2.10167418 26.2485793,3.41577259 L26.25,3.5 L26.25,21.7 C26.25,23.0249081 25.1983258,24.1041845 23.8842274,24.1485793 L23.8,24.15 L22.05,24.15 L22.05,24.85 C22.05,26.1489737 21.0390948,27.2118379 19.7610882,27.2947887 L19.6,27.3 L4.2,27.3 C2.90102627,27.3 1.8381621,26.2890948 1.75521133,25.0110882 L1.75,24.85 L1.75,7.35 C1.75,6.05102627 2.76090522,4.9881621 4.03891183,4.90521133 L4.2,4.9 L5.25,4.899 L5.25,3.5 C5.25,2.1750919 6.30167418,1.09581546 7.61577259,1.05142066 L7.7,1.05 L23.8,1.05 Z M19.6,7 L4.2,7 C4.0308628,7 3.88974695,7.1199737 3.85711076,7.27946279 L3.85,7.35 L3.85,24.85 C3.85,25.0191372 3.9699737,25.1602531 4.12946279,25.1928892 L4.2,25.2 L19.6,25.2 C19.7691372,25.2 19.9102531,25.0800263 19.9428892,24.9205372 L19.95,24.85 L19.95,7.35 C19.95,7.15670034 19.7932997,7 19.6,7 Z M16.1,20.3 C16.679899,20.3 17.15,20.770101 17.15,21.35 C17.15,21.9091883 16.712878,22.3662813 16.1616955,22.3982176 L16.1,22.4 L7.7,22.4 C7.12010101,22.4 6.65,21.929899 6.65,21.35 C6.65,20.7908117 7.08712199,20.3337187 7.63830452,20.3017824 L7.7,20.3 L16.1,20.3 Z M23.8,3.15 L7.7,3.15 C7.52050746,3.15 7.37257249,3.28511407 7.35235471,3.45918261 L7.35,3.5 L7.35,4.899 L19.6,4.9 C20.8989737,4.9 21.9618379,5.91090522 22.0447887,7.18891183 L22.05,7.35 L22.05,22.05 L23.8,22.05 C23.9794925,22.05 24.1274275,21.9148859 24.1476453,21.7408174 L24.15,21.7 L24.15,3.5 C24.15,3.32050746 24.0148859,3.17257249 23.8408174,3.15235471 L23.8,3.15 Z M12.6,15.05 C13.179899,15.05 13.65,15.520101 13.65,16.1 C13.65,16.6591883 13.212878,17.1162813 12.6616955,17.1482176 L12.6,17.15 L7.7,17.15 C7.12010101,17.15 6.65,16.679899 6.65,16.1 C6.65,15.5408117 7.08712199,15.0837187 7.63830452,15.0517824 L7.7,15.05 L12.6,15.05 Z M16.1,9.8 C16.679899,9.8 17.15,10.270101 17.15,10.85 C17.15,11.4091883 16.712878,11.8662813 16.1616955,11.8982176 L16.1,11.9 L7.7,11.9 C7.12010101,11.9 6.65,11.429899 6.65,10.85 C6.65,10.2908117 7.08712199,9.83371869 7.63830452,9.80178244 L7.7,9.8 L16.1,9.8 Z" id="形状结合" fill="#FFFFFF" fill-rule="nonzero" mask="url(#mask-2)"></path>
                    </g>
                </g>
            </g>
        </g>
    </g>
</svg>