<?xml version="1.0" encoding="UTF-8"?>
<svg width="26px" height="26px" viewBox="0 0 26 26" version="1.1" xmlns="http://www.w3.org/2000/svg" xmlns:xlink="http://www.w3.org/1999/xlink">
    <!-- Generator: Sketch 63 (92445) - https://sketch.com -->
    <title>删除</title>
    <desc>Created with Sketch.</desc>
    <g id="页面-2" stroke="none" stroke-width="1" fill="none" fill-rule="evenodd">
        <g id="1.1-提醒-展开" transform="translate(-645.000000, -579.000000)">
            <g id="编组-3备份" transform="translate(32.000000, 290.000000)">
                <g id="编组-2备份-5" transform="translate(32.000000, 262.000000)">
                    <g id="编组-5" transform="translate(534.000000, 0.000000)">
                        <g id="删除" transform="translate(46.000000, 26.000000)">
                            <rect id="Rectangle-48-Copy-13" x="0" y="0" width="28" height="28"></rect>
                            <g id="delete" transform="translate(1.722656, 1.777344)" fill="#FFFFFF" fill-rule="nonzero">
                                <path d="M3.17329205,24.1668833 C3.13463327,24.1344759 3.09528417,24.0923463 3.05662539,24.0502167 C3.09942616,24.0923463 3.13463327,24.1344759 3.17329205,24.1668833 Z M2.91242982,24.0173472 C2.87130739,23.9798181 2.83071901,23.9422889 2.79226686,23.9006805 C2.83018493,23.9422889 2.87130739,23.9798181 2.91242982,24.0173472 Z M24.2645874,3.78540039 C24.0787354,3.59954834 23.8085022,3.49594115 23.5462799,3.49594115 L18.504776,3.49594115 L18.504776,1.9252777 C18.504776,0.863037109 17.6417389,0 16.5794983,0 L7.97369385,0 C6.91145325,0 6.04841614,0.863037109 6.04841614,1.9252777 L6.04841614,3.49594115 L0.981277473,3.49594118 C0.443481445,3.49594118 0.00341796875,3.93280032 0.00341796875,4.47380068 C0.00341796875,5.01480104 0.440277113,5.45166018 0.981277473,5.45166018 L1.84431458,5.45166018 L1.84431458,22.4694061 C1.84431458,23.5316467 2.70735169,24.3946839 3.76959229,24.3946839 L21.0581055,24.3946839 C22.1203461,24.3946839 22.9833832,23.5316467 22.9833832,22.4694061 L22.9833832,5.45166016 L23.5457458,5.45166016 C24.0835419,5.45166016 24.5508444,5.01480101 24.5508444,4.47380065 C24.5513763,4.21424866 24.4504395,3.97125244 24.2645874,3.78540039 Z M7.97048952,1.93115234 L16.5709534,1.93115234 L16.5709534,3.51249694 L7.97048952,3.51249694 L7.97048952,1.93115234 Z M21.0554352,22.4667358 L3.76959229,22.4667358 L3.76959229,5.45166016 L6.26043701,5.45166016 L21.0549011,5.45166016 L21.0549011,22.4667358 L21.0554352,22.4667358 Z M12.2637787,8.7286377 C11.720108,8.7286377 11.2805786,9.16816712 11.2805786,9.71183776 L11.2805786,18.8340759 C11.2805786,19.3777466 11.720108,19.817276 12.2637787,19.817276 C12.8074493,19.817276 13.2469788,19.3777466 13.2469788,18.8340759 L13.2469788,9.71183776 C13.2469788,9.16870117 12.8074493,8.7286377 12.2637787,8.7286377 Z M6.93815612,8.7286377 C6.39448545,8.7286377 5.95495605,9.16816712 5.95495605,9.71183776 L5.95495605,18.8340759 C5.95495605,19.3777466 6.39448548,19.817276 6.93815612,19.817276 C7.48182676,19.817276 7.92135621,19.3777466 7.92135621,18.8340759 L7.92135621,9.71183776 C7.92135621,9.16870117 7.48129274,8.7286377 6.93815612,8.7286377 Z M17.5349274,8.7286377 C16.9912567,8.7286377 16.5517273,9.16816712 16.5517273,9.71183776 L16.5517273,18.8340759 C16.5517273,19.3777466 16.9912567,19.817276 17.5349274,19.817276 C18.078598,19.817276 18.5181274,19.3777466 18.5181274,18.8340759 L18.5181274,9.71183776 C18.5181274,9.16870117 18.078598,8.7286377 17.5349274,8.7286377 Z" id="Shape"></path>
                            </g>
                        </g>
                    </g>
                </g>
            </g>
        </g>
    </g>
</svg>