<?xml version="1.0" encoding="UTF-8"?>
<svg width="26px" height="26px" viewBox="0 0 26 26" version="1.1" xmlns="http://www.w3.org/2000/svg" xmlns:xlink="http://www.w3.org/1999/xlink">
    <!-- Generator: Sketch 63 (92445) - https://sketch.com -->
    <title>下载</title>
    <desc>Created with Sketch.</desc>
    <defs>
        <rect id="path-1" x="0" y="0" width="28" height="28"></rect>
    </defs>
    <g id="页面-2" stroke="none" stroke-width="1" fill="none" fill-rule="evenodd">
        <g id="1.9-提醒-查看录音-转文字" transform="translate(-152.000000, -1034.000000)">
            <g id="编组-5" transform="translate(55.000000, 217.000000)">
                <g id="btn" transform="translate(32.000000, 792.000000)">
                    <g id="下载" transform="translate(64.000000, 24.000000)">
                        <mask id="mask-2" fill="white">
                            <use xlink:href="#path-1"></use>
                        </mask>
                        <g id="蒙版"></g>
                        <path d="M25.55,17.15 C26.1091883,17.15 26.5662813,17.587122 26.5982176,18.1383045 L26.6,18.2 L26.6,23.8 C26.6,25.1249081 25.5483258,26.2041845 24.2342274,26.2485793 L24.15,26.25 L3.85,26.25 C2.5250919,26.25 1.44581546,25.1983258 1.40142066,23.8842274 L1.4,23.8 L1.4,18.2 C1.4,17.620101 1.87010101,17.15 2.45,17.15 C3.00918831,17.15 3.46628131,17.587122 3.49821756,18.1383045 L3.5,18.2 L3.5,23.8 C3.5,23.9794925 3.63511407,24.1274275 3.80918261,24.1476453 L3.85,24.15 L24.15,24.15 C24.3294925,24.15 24.4774275,24.0148859 24.4976453,23.8408174 L24.5,23.8 L24.5,18.2 C24.5,17.620101 24.970101,17.15 25.55,17.15 Z M14,1.75 C14.5591883,1.75 15.0162813,2.18712199 15.0482176,2.73830452 L15.05,2.8 L15.05,18.814 L18.1575379,15.7075379 C18.5511864,15.3138894 19.1796334,15.2981435 19.5920658,15.6603001 L19.6424621,15.7075379 C20.0361106,16.1011864 20.0518565,16.7296334 19.6896999,17.1420658 L19.6424621,17.1924621 L14.7424621,22.0924621 C14.3488136,22.4861106 13.7203666,22.5018565 13.3079342,22.1396999 L13.2575379,22.0924621 L8.35753788,17.1924621 C7.94748737,16.7824116 7.94748737,16.1175884 8.35753788,15.7075379 C8.75118637,15.3138894 9.37963339,15.2981435 9.79206576,15.6603001 L9.84246212,15.7075379 L12.949,18.813 L12.95,2.8 C12.95,2.22010101 13.420101,1.75 14,1.75 Z" id="形状结合" fill="#FFFFFF" fill-rule="nonzero" mask="url(#mask-2)"></path>
                    </g>
                </g>
            </g>
        </g>
    </g>
</svg>