<?xml version="1.0" encoding="UTF-8"?>
<svg width="28px" height="28px" viewBox="0 0 28 28" version="1.1" xmlns="http://www.w3.org/2000/svg" xmlns:xlink="http://www.w3.org/1999/xlink">
    <!-- Generator: Sketch 63 (92445) - https://sketch.com -->
    <title>标记</title>
    <desc>Created with Sketch.</desc>
    <g id="页面-2" stroke="none" stroke-width="1" fill="none" fill-rule="evenodd">
        <g id="1.5-提醒-新建语音-录音中" transform="translate(-171.000000, -963.000000)" fill="#2E1C14" fill-rule="nonzero">
            <g id="编组-5" transform="translate(55.000000, 217.000000)">
                <g id="编组-7" transform="translate(86.000000, 738.000000)">
                    <g id="标记" transform="translate(30.000000, 8.000000)">
                        <path d="M27.5415,8.02875 L19.8775,0.36675 C19.4035015,-0.106776598 18.6354985,-0.106776598 18.1615,0.36675 C18.0575,0.46875 15.8475,2.72675 16.6975,5.69675 L13.2255,9.16475 C11.3255,8.58875 6.4195,7.59075 2.8055,11.20475 C2.3319734,11.6787485 2.3319734,12.4467515 2.8055,12.92075 L8.0375,18.15275 L0.3335,25.85675 C-0.115187972,26.3346977 -0.103383936,27.0825365 0.360164802,27.5460852 C0.82371354,28.0096339 1.57155234,28.021438 2.0495,27.57275 L9.7535,19.86875 L14.9855,25.09875 C15.2126114,25.3271413 15.5214097,25.4555583 15.8435,25.4555583 C16.1655903,25.4555583 16.4743886,25.3271413 16.7015,25.09875 C20.3135,21.48675 19.3175,16.57875 18.7415,14.68075 L22.2115,11.21075 C25.1815,12.06075 27.4395,9.85075 27.5415,9.74675 C28.0150266,9.2727515 28.0150266,8.5047485 27.5415,8.03075 L27.5415,8.02875 Z M22.4195,8.70275 C21.9566606,8.48540603 21.4072527,8.58137248 21.0455,8.94275 L16.4895,13.50075 C16.1440573,13.847546 16.0393331,14.3672296 16.2235,14.82075 C16.2295,14.83275 16.7755,16.19675 16.8695,17.96075 C16.9615,19.71275 16.5895,21.21475 15.7615,22.44275 L10.6135,17.29475 L5.4615,12.14275 C8.7115,9.94675 12.8915,11.60275 13.0815,11.67875 C13.5350262,11.8659894 14.0566736,11.7618178 14.4035,11.41475 L18.9615,6.85875 C19.3228775,6.49699731 19.418844,5.94758941 19.2015,5.48475 C18.7775,4.57875 18.9315,3.74075 19.2015,3.12275 L24.7795,8.70275 C24.1595,8.96875 23.3215,9.12275 22.4175,8.70075 L22.4195,8.70275 Z M15.2255,15.27275 C15.2675,15.36675 15.6435,16.23275 15.6155,17.18275 C15.604782,17.5621661 15.3924622,17.907043 15.0585192,18.087469 C14.7245763,18.267895 14.3197442,18.2564591 13.9965192,18.057469 C13.6732943,17.8584789 13.480782,17.5021661 13.4915,17.12275 C13.4852444,16.7840764 13.4153637,16.4495988 13.2855,16.13675 C13.0500297,15.6004483 13.2922885,14.9746878 13.8275,14.73675 C14.3615797,14.4994892 14.9869328,14.7392526 15.2255,15.27275 L15.2255,15.27275 Z" id="形状"></path>
                    </g>
                </g>
            </g>
        </g>
    </g>
</svg>