<?xml version="1.0" encoding="UTF-8"?>
<svg width="26px" height="26px" viewBox="0 0 26 26" version="1.1" xmlns="http://www.w3.org/2000/svg" xmlns:xlink="http://www.w3.org/1999/xlink">
    <!-- Generator: Sketch 63 (92445) - https://sketch.com -->
    <title>会议</title>
    <desc>Created with Sketch.</desc>
    <defs>
        <rect id="path-1" x="0" y="0" width="28" height="28"></rect>
    </defs>
    <g id="页面-2" stroke="currentColor" stroke-width="1" fill="none" fill-rule="evenodd">
        <g id="2.0-会议" transform="translate(-65.000000, -395.000000)">
            <g id="编组-3备份" transform="translate(32.000000, 282.000000)">
                <g id="编组-2" transform="translate(32.000000, 86.000000)">
                    <g id="会议" transform="translate(0.000000, 26.000000)">
                        <mask id="mask-2" fill="white">
                            <use xlink:href="#path-1"></use>
                        </mask>
                        <g id="蒙版"></g>
                        <path d="M15.75,1.75 C16.329899,1.75 16.8,2.22010101 16.8,2.8 C16.8,3.35918831 16.362878,3.81628131 15.8116955,3.84821756 L15.75,3.85 L4.2,3.85 C4.02050746,3.85 3.87257249,3.98511407 3.85235471,4.15918261 L3.85,4.2 L3.85,23.8 C3.85,23.9794925 3.98511407,24.1274275 4.15918261,24.1476453 L4.2,24.15 L23.8,24.15 C23.9794925,24.15 24.1274275,24.0148859 24.1476453,23.8408174 L24.15,23.8 L24.15,2.8 C24.15,2.22010101 24.620101,1.75 25.2,1.75 C25.7591883,1.75 26.2162813,2.18712199 26.2482176,2.73830452 L26.25,2.8 L26.25,23.8 C26.25,25.1249081 25.1983258,26.2041845 23.8842274,26.2485793 L23.8,26.25 L4.2,26.25 C2.8750919,26.25 1.79581546,25.1983258 1.75142066,23.8842274 L1.75,23.8 L1.75,4.2 C1.75,2.8750919 2.80167418,1.79581546 4.11577259,1.75142066 L4.2,1.75 L15.75,1.75 Z M9.8,18.55 C10.7664983,18.55 11.55,19.3335017 11.55,20.3 C11.55,21.2664983 10.7664983,22.05 9.8,22.05 C8.83350169,22.05 8.05,21.2664983 8.05,20.3 C8.05,19.3335017 8.83350169,18.55 9.8,18.55 Z M15.05,18.55 C16.0164983,18.55 16.8,19.3335017 16.8,20.3 C16.8,21.2664983 16.0164983,22.05 15.05,22.05 C14.0835017,22.05 13.3,21.2664983 13.3,20.3 C13.3,19.3335017 14.0835017,18.55 15.05,18.55 Z M20.3,18.55 C21.2664983,18.55 22.05,19.3335017 22.05,20.3 C22.05,21.2664983 21.2664983,22.05 20.3,22.05 C19.3335017,22.05 18.55,21.2664983 18.55,20.3 C18.55,19.3335017 19.3335017,18.55 20.3,18.55 Z M20.3,1.75 C20.879899,1.75 21.35,2.22010101 21.35,2.8 L21.35,14.7 L20.3,16.45 L19.25,14.7 L19.25,2.8 C19.25,2.22010101 19.720101,1.75 20.3,1.75 Z M14.35,10.15 C14.929899,10.15 15.4,10.620101 15.4,11.2 C15.4,11.7591883 14.962878,12.2162813 14.4116955,12.2482176 L14.35,12.25 L6.65,12.25 C6.07010101,12.25 5.6,11.779899 5.6,11.2 C5.6,10.6408117 6.03712199,10.1837187 6.58830452,10.1517824 L6.65,10.15 L14.35,10.15 Z M14.35,6.65 C14.929899,6.65 15.4,7.12010101 15.4,7.7 C15.4,8.25918831 14.962878,8.71628131 14.4116955,8.74821756 L14.35,8.75 L6.65,8.75 C6.07010101,8.75 5.6,8.27989899 5.6,7.7 C5.6,7.14081169 6.03712199,6.68371869 6.58830452,6.65178244 L6.65,6.65 L14.35,6.65 Z" id="形状结合" fill="#FFFFFF" fill-rule="nonzero" mask="url(#mask-2)"></path>
                    </g>
                </g>
            </g>
        </g>
    </g>
</svg>