<?xml version="1.0" encoding="UTF-8"?>
<svg width="28px" height="28px" viewBox="0 0 28 28" version="1.1" xmlns="http://www.w3.org/2000/svg" xmlns:xlink="http://www.w3.org/1999/xlink">
    <!-- Generator: Sketch 63 (92445) - https://sketch.com -->
    <title>暂停</title>
    <desc>Created with Sketch.</desc>
    <defs>
        <rect id="path-1" x="0" y="0" width="28" height="28"></rect>
    </defs>
    <g id="页面-2" stroke="none" stroke-width="1" fill="none" fill-rule="evenodd">
        <g id="1.5-提醒-新建语音-录音中" transform="translate(-551.000000, -963.000000)">
            <g id="编组-5" transform="translate(55.000000, 217.000000)">
                <g id="编组-7备份" transform="translate(466.000000, 738.000000)">
                    <g id="暂停" transform="translate(30.000000, 8.000000)">
                        <mask id="mask-2" fill="white">
                            <use xlink:href="#path-1"></use>
                        </mask>
                        <g id="蒙版"></g>
                        <path d="M14,0 C21.7319865,0 28,6.2680135 28,14 C28,21.7319865 21.7319865,28 14,28 C6.2680135,28 0,21.7319865 0,14 C0,6.2680135 6.2680135,0 14,0 Z M14,2.1 C7.42781148,2.1 2.1,7.42781148 2.1,14 C2.1,20.5721885 7.42781148,25.9 14,25.9 C20.5721885,25.9 25.9,20.5721885 25.9,14 C25.9,7.42781148 20.5721885,2.1 14,2.1 Z M17.05,8 C17.6091883,8 18.0662813,8.43712199 18.0982176,8.98830452 L18.1,9.05 L18.1,19.3 C18.1,19.879899 17.629899,20.35 17.05,20.35 C16.4908117,20.35 16.0337187,19.912878 16.0017824,19.3616955 L16,19.3 L16,9.05 C16,8.47010101 16.470101,8 17.05,8 Z M11,8.175 C11.5591883,8.175 12.0162813,8.61212199 12.0482176,9.16330452 L12.05,9.225 L12.05,19.125 C12.05,19.704899 11.579899,20.175 11,20.175 C10.4408117,20.175 9.98371869,19.737878 9.95178244,19.1866955 L9.95,19.125 L9.95,9.225 C9.95,8.64510101 10.420101,8.175 11,8.175 Z" id="形状结合" fill="#2E1C14" fill-rule="nonzero" mask="url(#mask-2)"></path>
                    </g>
                </g>
            </g>
        </g>
    </g>
</svg>