<?xml version="1.0" encoding="UTF-8"?>
<svg width="38px" height="38px" viewBox="0 0 38 38" version="1.1" xmlns="http://www.w3.org/2000/svg" xmlns:xlink="http://www.w3.org/1999/xlink">
    <!-- Generator: Sketch 63 (92445) - https://sketch.com -->
    <title>播放</title>
    <desc>Created with Sketch.</desc>
    <g id="页面-2" stroke="none" stroke-width="1" fill="none" fill-rule="evenodd">
        <g id="1.6-提醒-新建语音-录音结束" transform="translate(-580.000000, -720.000000)">
            <g id="编组-5" transform="translate(55.000000, 217.000000)">
                <g id="编组-10" transform="translate(32.000000, 478.000000)">
                    <g id="编组-8" transform="translate(472.000000, 0.000000)">
                        <g id="播放" transform="translate(21.000000, 25.000000)">
                            <rect id="矩形" x="0" y="0" width="38" height="38"></rect>
                            <path d="M19,0 C29.4934102,0 38,8.50658975 38,19 C38,29.4934102 29.4934102,38 19,38 C8.50658975,38 0,29.4934102 0,19 C0,8.50658975 8.50658975,0 19,0 Z M19,2.85 C10.0806013,2.85 2.85,10.0806013 2.85,19 C2.85,27.9193987 10.0806013,35.15 19,35.15 C27.9193987,35.15 35.15,27.9193987 35.15,19 C35.15,10.0806013 27.9193987,2.85 19,2.85 Z M16.188435,11.0935973 L26.6530017,17.0006973 C27.1851768,17.291224 27.5162441,17.8491503 27.5162441,18.4554639 C27.5162441,19.0617775 27.1851768,19.6197038 26.6530017,19.9102306 L16.1890684,25.8192306 C15.6504843,26.1319331 14.9861188,26.134105 14.4455017,25.8249306 L14.4448684,25.8268306 C13.9033245,25.5418634 13.5663025,24.9782863 13.5714286,24.3663639 L13.5714286,12.5483639 C13.5657218,11.936284 13.9029109,11.3724274 14.4448684,11.0878973 C14.9853475,10.7782007 15.6499923,10.7803736 16.188435,11.0935973 Z" id="形状结合" fill="#FF7635" fill-rule="nonzero"></path>
                        </g>
                    </g>
                </g>
            </g>
        </g>
    </g>
</svg>