<?xml version="1.0" encoding="UTF-8"?>
<svg width="20px" height="28px" viewBox="0 0 20 28" version="1.1" xmlns="http://www.w3.org/2000/svg" xmlns:xlink="http://www.w3.org/1999/xlink">
    <!-- Generator: Sketch 63 (92445) - https://sketch.com -->
    <title>录音</title>
    <desc>Created with Sketch.</desc>
    <g id="页面-2" stroke="none" stroke-width="1" fill="none" fill-rule="evenodd">
        <g id="1.0-提醒" transform="translate(-300.000000, -490.000000)">
            <g id="编组-3" transform="translate(32.000000, 290.000000)">
                <g id="编组-2备份-4" transform="translate(32.000000, 174.000000)">
                    <g id="录音" transform="translate(232.000000, 26.000000)">
                        <rect id="Rectangle-37-Copy-23" x="0" y="0" width="28" height="28"></rect>
                        <g id="filetext" transform="translate(3.527344, 0.000000)" fill="#FFFFFF" fill-rule="nonzero">
                            <path d="M18.5858507,12.4268229 C19.1227942,12.4268229 19.5580729,12.8621016 19.5580729,13.3990451 C19.5580729,18.1574653 15.9292535,22.0846354 11.294184,22.5604167 L11.294184,22.5604167 L11.294184,25.9753472 L13.7447917,25.9753472 C14.2817352,25.9753472 14.7170139,26.4106259 14.7170139,26.9475694 C14.7170139,27.484513 14.2817352,27.9197917 13.7447917,27.9197917 L13.7447917,27.9197917 L6.89913194,27.9197917 C6.36218844,27.9197917 5.92690972,27.484513 5.92690972,26.9475694 C5.92690972,26.4106259 6.36218844,25.9753472 6.89913194,25.9753472 L6.89913194,25.9753472 L9.35034722,25.9753472 L9.35034722,22.5543403 C4.74019097,22.0548611 1.13932292,18.1386285 1.13932292,13.3990451 C1.13932292,12.8621016 1.57460163,12.4268229 2.11154514,12.4268229 C2.64848865,12.4268229 3.08376736,12.8621016 3.08376736,13.3990451 C3.08376736,17.4113555 6.33638756,20.6639757 10.3486979,20.6639757 C14.3610083,20.6639757 17.6136285,17.4113555 17.6136285,13.3990451 C17.6136285,12.8621016 18.0489072,12.4268229 18.5858507,12.4268229 Z M10.3827257,0.00364591139 C13.2758444,0.00364591139 15.6211806,2.34898199 15.6211806,5.24210069 L15.6211806,5.24210069 L15.6211806,13.2513889 C15.6178321,16.1431195 13.2744563,18.4864953 10.3827257,18.4898437 C7.49099508,18.4864953 5.1476193,16.1431195 5.14427083,13.2513889 L5.14427083,13.2513889 L5.14427083,5.24210069 C5.14427083,2.34898199 7.48960699,0.00364591139 10.3827257,0.00364591139 Z M13.6797743,10.2186632 L7.08871528,10.2186632 L7.08871528,13.2513889 C7.09072456,15.0697877 8.5643269,16.54339 10.3827257,16.5453993 C12.2023109,16.5450651 13.6777626,15.070973 13.6797743,13.2513889 L13.6797743,13.2513889 L13.6797743,10.2186632 Z M10.3827257,1.94748264 C8.56527659,1.95116567 7.09342419,3.42464863 7.09175347,5.24210069 L7.09175347,5.24210069 L7.09175347,8.27482639 L13.6767361,8.27482639 L13.6767361,5.24210069 C13.6747268,3.4237019 12.2011245,1.95009956 10.3827257,1.94748264 Z" id="形状结合"></path>
                        </g>
                    </g>
                </g>
            </g>
        </g>
    </g>
</svg>