<?xml version="1.0" encoding="UTF-8"?>
<svg width="28px" height="27px" viewBox="0 0 28 27" version="1.1" xmlns="http://www.w3.org/2000/svg" xmlns:xlink="http://www.w3.org/1999/xlink">
    <!-- Generator: Sketch 63 (92445) - https://sketch.com -->
    <title>分享</title>
    <desc>Created with Sketch.</desc>
    <defs>
        <rect id="path-1" x="0.000104836535" y="0" width="28" height="28"></rect>
    </defs>
    <g id="页面-2" stroke="none" stroke-width="1" fill="none" fill-rule="evenodd">
        <g id="1.7-提醒-查看文本" transform="translate(-474.000000, -1034.000000)">
            <g id="编组-5" transform="translate(55.000000, 217.000000)">
                <g id="btn备份" transform="translate(332.000000, 792.000000)">
                    <g id="分享" transform="translate(87.000000, 24.000000)">
                        <mask id="mask-2" fill="white">
                            <use xlink:href="#path-1"></use>
                        </mask>
                        <g id="蒙版"></g>
                        <path d="M27.3844506,1.14342816 L27.4098871,1.15574028 C27.4226932,1.16198758 27.435406,1.16851439 27.4480168,1.17532144 C27.4685344,1.1863922 27.4885722,1.19813275 27.5082043,1.21050513 C27.5178694,1.21652448 27.5277864,1.22299391 27.5376218,1.22965069 C27.5588614,1.24410681 27.5793185,1.25903938 27.5992265,1.27467509 C27.6086766,1.282112 27.61814,1.28982762 27.6275053,1.29773536 C27.6632108,1.32820241 27.6904862,1.35416079 27.7163443,1.38151454 L27.6275053,1.29773536 C27.6636912,1.32828925 27.6972946,1.3607664 27.7282923,1.39489022 C27.7519713,1.42024765 27.7744404,1.44738192 27.795535,1.47562804 C27.7974762,1.47952391 27.8001482,1.48318346 27.802794,1.48685707 C27.9356289,1.6681881 28.0113397,1.89444029 27.9997903,2.14229177 C27.9986277,2.15920564 27.9975645,2.17591221 27.996102,2.19259703 C27.9952718,2.2032679 27.9940697,2.21435218 27.9926915,2.22547347 L27.9892548,2.25154551 C27.9870741,2.26659882 27.9845643,2.28161953 27.9817245,2.29659628 L24.3867755,22.583209 C24.2792129,23.190211 23.6768825,23.5698046 23.0890186,23.4163531 L23.0282776,23.3985647 L14.3330708,20.5719999 C14.2083286,20.5314497 14.0963641,20.469763 13.9998536,20.392194 L14.0001048,26.25 C14.0001048,26.829899 13.5300038,27.3 12.9501048,27.3 C12.3909165,27.3 11.9338235,26.862878 11.9018873,26.3116955 L11.9001048,26.25 L11.9001048,19.3205978 C11.9001048,18.6982439 12.1074081,18.0947908 12.4874573,17.6047308 L12.5607325,17.5141965 L22.829,5.35174828 L3.80005484,14.93975 L10.2310828,17.0303907 C10.7628788,17.2032625 11.0624454,17.7602809 10.9224204,18.2943362 L10.9050425,18.3535605 C10.7321708,18.8853565 10.1751524,19.1849231 9.64109702,19.0448981 L9.58187272,19.0275202 L0.725499781,16.1485647 C-0.145493909,15.8654294 -0.254957657,14.690671 0.520723614,14.2430207 L0.577636436,14.2123041 L26.4776364,1.16230409 L26.4987509,1.15167485 C26.5166634,1.14316254 26.534779,1.13517911 26.5530731,1.12772665 L26.4776364,1.16230409 C26.5244665,1.13870827 26.5717122,1.11896648 26.6191173,1.10288796 C26.6299028,1.09980956 26.6402845,1.09655615 26.6507077,1.09346629 C26.679932,1.08379884 26.7097203,1.07614092 26.739486,1.06985871 C26.7437036,1.07043688 26.7477196,1.06964259 26.7517396,1.06887178 L26.739486,1.06985871 C26.9649027,1.02228331 27.1890289,1.05360613 27.3844506,1.14342816 Z M25.235,5.75774828 L14.4359593,18.5469353 C14.5926151,18.5129448 14.7589204,18.5144573 14.9230567,18.5574925 L14.982281,18.5748704 L22.5296048,21.028 L25.235,5.75774828 Z" id="形状结合" fill="#FF7635" fill-rule="nonzero" mask="url(#mask-2)"></path>
                    </g>
                </g>
            </g>
        </g>
    </g>
</svg>