<?xml version="1.0" encoding="UTF-8"?>
<svg width="34px" height="34px" viewBox="0 0 34 34" version="1.1" xmlns="http://www.w3.org/2000/svg" xmlns:xlink="http://www.w3.org/1999/xlink">
    <!-- Generator: Sketch 63 (92445) - https://sketch.com -->
    <title>转文字</title>
    <desc>Created with Sketch.</desc>
    <defs>
        <rect id="path-1" x="0" y="0" width="38" height="38"></rect>
    </defs>
    <g id="页面-2" stroke="none" stroke-width="1" fill="none" fill-rule="evenodd">
        <g id="1.8-提醒-查看录音" transform="translate(-502.000000, -597.000000)">
            <g id="编组-5" transform="translate(55.000000, 420.000000)">
                <g id="编组-10" transform="translate(32.000000, 150.000000)">
                    <g id="编组-7" transform="translate(392.000000, 0.000000)">
                        <g id="转文字" transform="translate(21.000000, 25.000000)">
                            <mask id="mask-2" fill="white">
                                <use xlink:href="#path-1"></use>
                            </mask>
                            <g id="蒙版"></g>
                            <path d="M32.3,2.375 C34.1363468,2.375 35.625,3.86365321 35.625,5.7 L35.625,5.7 L35.625,32.3 C35.625,34.1363468 34.1363468,35.625 32.3,35.625 L32.3,35.625 L5.7,35.625 C3.86365321,35.625 2.375,34.1363468 2.375,32.3 L2.375,32.3 L2.375,5.7 C2.375,3.86365321 3.86365321,2.375 5.7,2.375 L5.7,2.375 Z M32.3,5.225 L5.7,5.225 C5.43766474,5.225 5.225,5.43766474 5.225,5.7 L5.225,5.7 L5.225,32.3 C5.225,32.5623353 5.43766474,32.775 5.7,32.775 L5.7,32.775 L32.3,32.775 C32.5623353,32.775 32.775,32.5623353 32.775,32.3 L32.775,32.3 L32.775,5.7 C32.775,5.43766474 32.5623353,5.225 32.3,5.225 L32.3,5.225 Z M26.625,9 C27.4120058,9 28.05,9.63799423 28.05,10.425 C28.05,11.1838984 27.456763,11.8042389 26.7087296,11.847581 L26.625,11.85 L20.314,11.85 L20.3142857,26.8902157 C20.3142857,27.6772214 19.6762915,28.3152157 18.8892857,28.3152157 C18.1303873,28.3152157 17.5100468,27.7219787 17.4667047,26.9739452 L17.4642857,26.8902157 L17.464,11.85 L11.425,11.85 C10.6379942,11.85 10,11.2120058 10,10.425 C10,9.66610158 10.593237,9.04576108 11.3412704,9.00241903 L11.425,9 L26.625,9 Z" id="形状结合" fill="#FF7635" fill-rule="nonzero" mask="url(#mask-2)"></path>
                        </g>
                    </g>
                </g>
            </g>
        </g>
    </g>
</svg>