<?xml version="1.0" encoding="UTF-8"?>
<svg width="22px" height="28px" viewBox="0 0 22 28" version="1.1" xmlns="http://www.w3.org/2000/svg" xmlns:xlink="http://www.w3.org/1999/xlink">
    <!-- Generator: Sketch 63 (92445) - https://sketch.com -->
    <title>文本</title>
    <desc>Created with Sketch.</desc>
    <g id="页面-2" stroke="none" stroke-width="1" fill="none" fill-rule="evenodd">
        <g id="1.0-提醒" transform="translate(-355.000000, -402.000000)">
            <g id="编组-3" transform="translate(32.000000, 290.000000)">
                <g id="编组-2" transform="translate(32.000000, 86.000000)">
                    <g id="文本" transform="translate(288.000000, 26.000000)">
                        <rect id="Rectangle-37-Copy-23" x="0" y="0" width="28" height="28"></rect>
                        <g id="filetext" transform="translate(3.527344, 0.000000)" fill="#FFFFFF" fill-rule="nonzero">
                            <path d="M20.4148438,8.25234375 L12.81875,0.582421875 C12.6957031,0.459375 12.5617187,0.35546875 12.4167969,0.26796875 C12.3785156,0.24609375 12.3402344,0.22421875 12.2992187,0.205078125 C12.2746094,0.19140625 12.2472656,0.18046875 12.2226562,0.16953125 C11.9765625,0.06015625 11.7058594,1.03620816e-15 11.4296875,1.03620816e-15 L1.99609375,1.03620816e-15 C0.9078125,1.03620816e-15 0,0.88046875 0,1.96875 L0,26.03125 C0,27.1195312 0.9078125,28 1.99609375,28 L19.03125,28 C20.1195312,28 20.9726562,27.1195312 20.9726562,26.03125 L20.9726562,9.63867188 C20.9726562,9.11914063 20.78125,8.62148438 20.4148438,8.25234375 Z M12.4414062,3.01875 L17.9320313,8.53125 L12.4414062,8.53125 L12.4414062,3.01875 Z M19.0039062,26.03125 L1.96875,26.03125 L1.96875,1.96875 L10.4726562,1.96875 L10.4726562,8.53125 C10.4726562,9.61953125 11.3804688,10.5 12.46875,10.5 L19.0039062,10.5 L19.0039062,26.03125 Z M12.46875,13.234375 C12.46875,12.6902344 12.0285156,12.25 11.484375,12.25 L4.484375,12.25 C3.94023438,12.25 3.5,12.6902344 3.5,13.234375 C3.5,13.7785156 3.94023438,14.21875 4.484375,14.21875 L11.484375,14.21875 C12.0285156,14.21875 12.46875,13.7785156 12.46875,13.234375 Z M17.71875,17.609375 C17.71875,17.0652344 17.2785156,16.625 16.734375,16.625 L4.484375,16.625 C3.94023438,16.625 3.5,17.0652344 3.5,17.609375 C3.5,18.1535156 3.94023438,18.59375 4.484375,18.59375 L16.734375,18.59375 C17.2785156,18.59375 17.71875,18.1535156 17.71875,17.609375 Z M14.21875,21.984375 C14.21875,21.4402344 13.7785156,21 13.234375,21 L4.484375,21 C3.94023438,21 3.5,21.4402344 3.5,21.984375 C3.5,22.5285156 3.94023438,22.96875 4.484375,22.96875 L13.234375,22.96875 C13.7785156,22.96875 14.21875,22.5285156 14.21875,21.984375 Z" id="Shape"></path>
                        </g>
                    </g>
                </g>
            </g>
        </g>
    </g>
</svg>